# xmcd
#
# Track frame offsets:
#	150
#	14307
#	36104
#	54772
#	76042
#	90647
#	107058
#	118854
#	134084
#	148629
#	160669
#	174464
#	192554
#	210197
#	231297
#	246407
#
# Disc length: 3415 seconds
#
# Revision: 0
# Processed by: cddbd v1.5.1PL0 Copyright (c) Steve Scherf et al.
# Submitted via: dBpowerAMP V4.0
#
DISCID=d30d5510
DTITLE=John Denver - Greatest Country Songs
DYEAR=2004
DGENRE=Country
TTITLE0=Annie's Song - John Denver
TTITLE1=Sunshine on my shoulders - John Denver
TTITLE2=Rocky Mountain High - John Denver
TTITLE3=Back Home Again - John Denver
TTITLE4=Take Me Home, Country Roads - John Denver
TTITLE5=Leaving On A Jetplane - John Denver
TTITLE6=Love Again - John Denver
TTITLE7=I'm Sorry - John Denver
TTITLE8=Dreamland Express - John Denver
TTITLE9=Perhaps Love - John Denver
TTITLE10=Thank God I'm A Country Boy - John Denver
TTITLE11=Windsong - John Denver
TTITLE12=Seasons Of The Heart - John Denver
TTITLE13=For You - John Denver
TTITLE14=Whispering Jesse - John Denver
TTITLE15=Christmas For Cowboys - John Denver
EXTD=
EXTT0=
EXTT1=
EXTT2=
EXTT3=
EXTT4=
EXTT5=
EXTT6=
EXTT7=
EXTT8=
EXTT9=
EXTT10=
EXTT11=
EXTT12=
EXTT13=
EXTT14=
EXTT15=
PLAYORDER=
